<svg xmlns="http://www.w3.org/2000/svg" version="1.1" xmlns:xlink="http://www.w3.org/1999/xlink" xmlns:svgjs="http://svgjs.com/svgjs" width="1440" height="766" preserveAspectRatio="none" viewBox="0 0 1440 766">

<g mask="url(&quot;#SvgjsMask1099&quot;)" fill="none">
    <rect width="1440" height="766" x="0" y="0" fill="rgba(0, 82, 87, 1)"></rect>
    <path d="M381.64968500958076 8.158903061127669L155.44863951159334-15.615784842234754 131.6739516082309 210.58526065575265 357.87499710621836 234.35994855911508z" fill="rgba(189, 255, 0, 0.54)" class="triangle-float2"></path>

    <path d="M564.909494938741 364.437166893686L748.5814538899539 315.40997681548663 633.1433355018526 195.8703058576633z" fill="rgba(189, 255, 0, 0.54)" class="triangle-float1"></path>

    <path d="M547.8980625355643-60.90470030051908L427.61439114443283-116.993897421203 403.62243115897274 91.47620822583622z" fill="rgba(189, 255, 0, 0.54)" class="triangle-float1"></path>

    <path d="M1285.927,740.395C1340.85,737.685,1389.685,709.217,1418.671,662.487C1449.502,612.783,1462.998,551.122,1435.278,499.619C1406.284,445.747,1347.104,415.365,1285.927,415.846C1225.579,416.321,1171.781,450.272,1140.59,501.936C1108.221,555.551,1095.782,623.33,1128.376,676.808C1159.966,728.639,1225.302,743.386,1285.927,740.395" fill="rgba(189, 255, 0, 0.54)" class="triangle-float2"></path>

    <path d="M732.28 441.91 a154.24 154.24 0 1 0 308.48 0 a154.24 154.24 0 1 0 -308.48 0z" fill="rgba(189, 255, 0, 0.54)" class="triangle-float1"></path>

    <path d="M51.374,23.1C74.18,22.99,94.437,9.348,105.642,-10.515C116.648,-30.026,117.228,-54.005,105.709,-73.217C94.495,-91.92,73.164,-100.164,51.374,-101.025C27.635,-101.963,1.366,-98.146,-10.949,-77.829C-23.581,-56.988,-16.609,-30.725,-3.805,-9.989C8.272,9.569,28.388,23.21,51.374,23.1" fill="rgba(189, 255, 0, 0.54)" class="triangle-float2"></path>

    <path d="M17.34 679.75 a188.3 188.3 0 1 0 376.6 0 a188.3 188.3 0 1 0 -376.6 0z" fill="rgba(189, 255, 0, 0.54)" class="triangle-float2"></path>

    <path d="M638.435,568.121C666.699,567.939,697.555,566.555,713.536,543.241C731.328,517.285,732.527,481.872,715.846,455.188C699.977,429.802,668.351,421.941,638.435,423.099C610.777,424.17,585.577,437.43,570.755,460.806C554.702,486.125,545.645,518.864,561.637,544.221C576.965,568.526,609.701,568.306,638.435,568.121" fill="rgba(189, 255, 0, 0.54)" class="triangle-float2"></path>
</g>
<defs>
    <mask id="SvgjsMask1099"><rect width="1440" height="766" fill="#ffffff"></rect></mask>
    <style>
        @keyframes float1 {
            0%{transform: translate(0, 0)}
            50%{transform: translate(-10px, 0)}
            100%{transform: translate(0, 0)}
        }

        .triangle-float1 {
            animation: float1 5s infinite;
        }

        @keyframes float2 {
            0%{transform: translate(0, 0)}
            50%{transform: translate(-5px, -5px)}
            100%{transform: translate(0, 0)}
        }

        .triangle-float2 {
            animation: float2 4s infinite;
        }

        @keyframes float3 {
            0%{transform: translate(0, 0)}
            50%{transform: translate(0, -10px)}
            100%{transform: translate(0, 0)}
        }

        .triangle-float3 {
            animation: float3 6s infinite;
        }
    </style>
</defs></svg>