<svg xmlns="http://www.w3.org/2000/svg" version="1.1" xmlns:xlink="http://www.w3.org/1999/xlink" xmlns:svgjs="http://svgjs.com/svgjs" width="1440" height="766" preserveAspectRatio="none" viewBox="0 0 1440 766"><g mask="url(&quot;#SvgjsMask1117&quot;)" fill="none"><rect width="1440" height="766" x="0" y="0" fill="rgba(0, 82, 87, 1)"></rect><path d="M8 766L774 0L918 0L152 766z" fill="url(#SvgjsLinearGradient1118)"></path><path d="M489.20000000000005 766L1255.2 0L1465.2 0L699.2 766z" fill="url(#SvgjsLinearGradient1118)"></path><path d="M1377 766L611 0L282.5 0L1048.5 766z" fill="url(#SvgjsLinearGradient1119)"></path><path d="M956.8 766L190.79999999999995 0L-229.20000000000005 0L536.8 766z" fill="url(#SvgjsLinearGradient1119)"></path><path d="M977.4948773628848 766L1440 303.4948773628849L1440 766z" fill="url(#SvgjsLinearGradient1118)"></path><path d="M0 766L462.5051226371151 766L 0 303.4948773628849z" fill="url(#SvgjsLinearGradient1119)"></path></g><defs><mask id="SvgjsMask1117"><rect width="1440" height="766" fill="#ffffff"></rect></mask><linearGradient x1="0%" y1="100%" x2="100%" y2="0%" id="SvgjsLinearGradient1118"><stop stop-color="rgba(189, 255, 0, 0.69)" offset="0"></stop><stop stop-opacity="0" stop-color="rgba(189, 255, 0, 0.69)" offset="0.66"></stop></linearGradient><linearGradient x1="100%" y1="100%" x2="0%" y2="0%" id="SvgjsLinearGradient1119"><stop stop-color="rgba(189, 255, 0, 0.69)" offset="0"></stop><stop stop-opacity="0" stop-color="rgba(189, 255, 0, 0.69)" offset="0.66"></stop></linearGradient></defs></svg>