<?xml version="1.0" encoding="utf-8"?>
<svg viewBox="1.29 -23.384 500 500" width="500" height="500" xmlns="http://www.w3.org/2000/svg">
  <g style="stroke: none; stroke-width: 0; stroke-dasharray: none; stroke-linecap: butt; stroke-linejoin: miter; stroke-miterlimit: 10; fill: none; fill-rule: nonzero; opacity: 1;" transform="matrix(2.81, 0, 0, 2.81, 119.004539, 115.267174)">

    <path d="M 45 90 C 20.187 90 0 69.813 0 45 C 0 20.187 20.187 0 45 0 c 24.813 0 45 20.187 45 45 C 90 69.813 69.813 90 45 90 z" style="stroke: none; stroke-width: 2; stroke-dasharray: none; stroke-linecap: butt; stroke-linejoin: miter; stroke-miterlimit: 10; fill: rgb(236,0,0); fill-rule: nonzero; opacity: 1;" transform=" matrix(1 0 0 1 0 0) " stroke-linecap="round"/>


    <path d="M 28.902 66.098 c -1.28 0 -2.559 -0.488 -3.536 -1.465 c -1.953 -1.952 -1.953 -5.118 0 -7.07 l 32.196 -32.196 c 1.951 -1.952 5.119 -1.952 7.07 0 c 1.953 1.953 1.953 5.119 0 7.071 L 32.438 64.633 C 31.461 65.609 30.182 66.098 28.902 66.098 z" style="stroke: black; stroke-width: 2; stroke-dasharray: none; stroke-linecap: butt; stroke-linejoin: miter; stroke-miterlimit: 10; fill: rgb(255,255,255); fill-rule: nonzero; opacity: 1;" transform=" matrix(1 0 0 1 0 0) " stroke-linecap="round"/>


    <path d="M 61.098 66.098 c -1.279 0 -2.56 -0.488 -3.535 -1.465 L 25.367 32.438 c -1.953 -1.953 -1.953 -5.119 0 -7.071 c 1.953 -1.952 5.118 -1.952 7.071 0 l 32.195 32.196 c 1.953 1.952 1.953 5.118 0 7.07 C 63.657 65.609 62.377 66.098 61.098 66.098 z" style="stroke: black; stroke-width: 2; stroke-dasharray: none; stroke-linecap: butt; stroke-linejoin: miter; stroke-miterlimit: 10; fill: rgb(255,255,255); fill-rule: nonzero; opacity: 1;" transform=" matrix(1 0 0 1 0 0) " stroke-linecap="round"/>


    <path d="M 45 90 C 20.187 90 0 69.813 0 45 C 0 20.187 20.187 0 45 0 c 24.813 0 45 20.187 45 45 C 90 69.813 69.813 90 45 90 z M 45 2 C 21.29 2 2 21.29 2 45 c 0 23.71 19.29 43 43 43 c 23.71 0 43 -19.29 43 -43 C 88 21.29 68.71 2 45 2 z" style="stroke: none; stroke-width: 1; stroke-dasharray: none; stroke-linecap: butt; stroke-linejoin: miter; stroke-miterlimit: 10; fill: rgb(0,0,0); fill-rule: nonzero; opacity: 1;" transform=" matrix(1 0 0 1 0 0) " stroke-linecap="round"/>
  </g>
  
  <path style="paint-order: fill; fill: rgb(255, 255, 255);" d="M 250.549 220.679 L 225.298 245.99 L 240.839 262.237 L 266.595 236.483"/>
</svg>